<mxfile host="app.diagrams.net" modified="2023-12-05T23:33:34.263Z" agent="Mozilla/5.0 (Windows NT 10.0; Win64; x64) AppleWebKit/537.36 (KHTML, like Gecko) Chrome/119.0.0.0 Safari/537.36" etag="1XPyhUGxA0Vc62FjLlv2" version="22.1.5" type="github">
  <diagram id="prtHgNgQTEPvFCAcTncT" name="Page-1">
    <mxGraphModel dx="2074" dy="1140" grid="1" gridSize="10" guides="1" tooltips="1" connect="1" arrows="1" fold="1" page="1" pageScale="1" pageWidth="827" pageHeight="1169" math="0" shadow="0">
      <root>
        <mxCell id="0" />
        <mxCell id="1" parent="0" />
        <mxCell id="joS-C69eMkTuMLhY9_im-2" value="" style="rounded=0;whiteSpace=wrap;html=1;" vertex="1" parent="1">
          <mxGeometry x="60" y="40" width="720" height="520" as="geometry" />
        </mxCell>
        <mxCell id="joS-C69eMkTuMLhY9_im-5" value="Header/Seasonal Ingredients" style="rounded=0;whiteSpace=wrap;html=1;" vertex="1" parent="1">
          <mxGeometry x="230" y="110" width="390" height="60" as="geometry" />
        </mxCell>
        <mxCell id="joS-C69eMkTuMLhY9_im-6" value="Button 4/Winter info" style="rounded=0;whiteSpace=wrap;html=1;" vertex="1" parent="1">
          <mxGeometry x="580" y="210" width="120" height="60" as="geometry" />
        </mxCell>
        <mxCell id="joS-C69eMkTuMLhY9_im-7" value="Button 3/Fall info" style="rounded=0;whiteSpace=wrap;html=1;" vertex="1" parent="1">
          <mxGeometry x="430" y="210" width="120" height="60" as="geometry" />
        </mxCell>
        <mxCell id="joS-C69eMkTuMLhY9_im-8" value="Button 2/Summer info" style="rounded=0;whiteSpace=wrap;html=1;" vertex="1" parent="1">
          <mxGeometry x="280" y="210" width="120" height="60" as="geometry" />
        </mxCell>
        <mxCell id="joS-C69eMkTuMLhY9_im-9" value="Button 1/Spring info" style="rounded=0;whiteSpace=wrap;html=1;" vertex="1" parent="1">
          <mxGeometry x="130" y="210" width="120" height="60" as="geometry" />
        </mxCell>
        <mxCell id="joS-C69eMkTuMLhY9_im-10" value="Display Info / {season} Ingredients" style="rounded=0;whiteSpace=wrap;html=1;" vertex="1" parent="1">
          <mxGeometry x="170" y="300" width="510" height="180" as="geometry" />
        </mxCell>
        <mxCell id="joS-C69eMkTuMLhY9_im-11" value="" style="rounded=0;whiteSpace=wrap;html=1;" vertex="1" parent="1">
          <mxGeometry x="60" y="585" width="720" height="445" as="geometry" />
        </mxCell>
        <mxCell id="joS-C69eMkTuMLhY9_im-12" value="Page 2 Header/Location Info" style="rounded=0;whiteSpace=wrap;html=1;" vertex="1" parent="1">
          <mxGeometry x="200" y="640" width="430" height="60" as="geometry" />
        </mxCell>
        <mxCell id="joS-C69eMkTuMLhY9_im-13" value="Button/Page 2 (Location info)" style="rounded=0;whiteSpace=wrap;html=1;" vertex="1" parent="1">
          <mxGeometry x="570" y="510" width="140" height="40" as="geometry" />
        </mxCell>
        <mxCell id="joS-C69eMkTuMLhY9_im-14" value="list 7 days/clickable display info" style="rounded=0;whiteSpace=wrap;html=1;" vertex="1" parent="1">
          <mxGeometry x="120" y="750" width="160" height="190" as="geometry" />
        </mxCell>
        <mxCell id="joS-C69eMkTuMLhY9_im-15" value="Hidden/Display location info depending on day selected" style="rounded=0;whiteSpace=wrap;html=1;" vertex="1" parent="1">
          <mxGeometry x="330" y="750" width="320" height="200" as="geometry" />
        </mxCell>
      </root>
    </mxGraphModel>
  </diagram>
</mxfile>
